<?xml version="1.0" encoding="iso-8859-1"?>
<!-- Uploaded to: SVG Repo, www.svgrepo.com, Generator: SVG Repo Mixer Tools -->
<svg height="800px" width="800px" version="1.1" id="Capa_1" xmlns="http://www.w3.org/2000/svg" xmlns:xlink="http://www.w3.org/1999/xlink" 
	 viewBox="0 0 452.986 452.986" xml:space="preserve">
<g>
	<g>
		<g>
			<path style="fill:#010002;" d="M226.493,0C101.577,0,0,101.577,0,226.493c0,124.873,101.577,226.493,226.493,226.493
				c124.852,0,226.493-101.62,226.493-226.493C452.986,101.577,351.345,0,226.493,0z M226.493,427.792
				c-111.046,0-201.32-90.295-201.32-201.299c0-111.025,90.274-201.342,201.32-201.342c110.982,0,201.277,90.317,201.277,201.342
				C427.77,337.496,337.475,427.792,226.493,427.792z"/>
			<path style="fill:#010002;" d="M147.285,222.503c16.825,0,30.458-13.546,30.458-30.35c0-16.804-13.633-30.393-30.458-30.393
				c-16.717,0-30.393,13.59-30.393,30.393S130.568,222.503,147.285,222.503z"/>
			<circle style="fill:#010002;" cx="305.636" cy="192.131" r="30.372"/>
			<path style="fill:#010002;" d="M226.493,375.655c60.398,0,112.017-36.088,135.508-87.772H91.007
				C114.411,339.567,166.03,375.655,226.493,375.655z"/>
		</g>
	</g>
	<g>
	</g>
	<g>
	</g>
	<g>
	</g>
	<g>
	</g>
	<g>
	</g>
	<g>
	</g>
	<g>
	</g>
	<g>
	</g>
	<g>
	</g>
	<g>
	</g>
	<g>
	</g>
	<g>
	</g>
	<g>
	</g>
	<g>
	</g>
	<g>
	</g>
</g>
</svg>